
<svg xmlns="http://www.w3.org/2000/svg" version="1.1" xmlns:xlink="http://www.w3.org/1999/xlink" preserveAspectRatio="none" x="0px" y="0px" width="805px" height="330px" viewBox="0 0 805 330">
<defs>
<g id="Layer0_0_FILL">
<path fill="#FFFFFF" stroke="none" d="
M 734 15.5
L 734 15.95 732.9 15.5 694.4 54.5 682 13.8 580.1 15.5 589 43.2
Q 586.6 42.35 584.75 42.1 583.9 41.8 583.05 41.55 574.15 39.7 565.55 38.1
L 565.55 37.85 563.4 37.85 562.85 37.3 562.1 37 561.85 37
Q 559.6 37 558.85 36.15
L 552.1 35.4
Q 546.7 34.3 542.1 34.05
L 541.9 34.05 535.4 32.75
Q 525.4 30.5 515.45 28.95
L 506.55 27.8 506.55 27.25 480.7 24.3 480.15 24.3 478.75 35.15 474.5 23.55
Q 411.45 16.8 349.1 17.05
L 349.1 32.75 339.5 17.6 333.25 18.15
Q 287.75 20.05 243.5 25.4
L 217.9 28.65 168.3 15.5
Q 159.7 14.65 151.35 12.25
L 121.95 4.9 109.55 36.15 105.55 21.15 27.1 38.85 27.1 38.55 1.5 44.8 1.5 45.35 0.95 45.35 2.65 53.15
Q 3.35 54.5 3.35 56.1
L 57.35 281.7 164.8 253.4 157.55 228.65 209 261.45 209.85 260.65 235.15 232.35
Q 250.55 229.95 265.3 228.1 343.2 217.35 421.35 220.05 489.3 222.7 557.45 236.45 577.15 240.25 596.6 245.05
L 595.2 253.4 616 258.8
Q 616 259.05 616.8 259.05
L 638.3 264.15
Q 639.15 264.15 639.45 264.45
L 685.5 276.85 717.9 156.9 804.1 86.3 734 15.5
M 734 42.1
L 775.75 83.1 698.95 141.6 670.1 247.75 642.4 240.25
Q 639.15 239.4 636.75 239.15
L 619.5 234.75 639.45 125.9
Q 637.5 119.45 635.35 113.3
L 608.95 34.05 666.9 32.75 683.85 90.15 734 42.1
M 587.4 61.3
Q 593.05 62.6 599 64.25 605.2 65.55 611.35 67.2
L 625.45 109.5 581.5 98.45 580.95 98.45 576.85 121.65
Q 577.4 121.65 577.7 121.95 599.3 127.05 626.75 131.85
L 619.5 162.1 572.6 153.75 569.9 175.5
Q 596.05 180.6 622.2 185.7
L 616 224.3 531.05 208.9 551 53.7
Q 557.2 54.5 563.7 56.1 575.55 58.3 587.4 61.3
M 498.7 44.8
Q 520 48.3 540.8 51.55
L 522.7 207.05
Q 498.2 203.8 480.95 201.4
L 456.7 154.75 456.7 199.8
Q 454.25 199.8 451.6 199.55 436.2 199 421.65 198.15
L 426 37.85
Q 441.55 38.55 457.8 40.25
L 459.95 40.5 490.9 113.3 498.7 44.8
M 344.6 149.65
L 344.6 197.6
Q 326.5 199 307.7 199.55
L 294.7 78.8
Q 294.4 75 294.4 71.5 292.85 54.5 291 38.1 297.65 38.1 303.05 37.85 315.45 37 327.9 36.15
L 370.45 101.45 370.45 35.9
Q 391.5 35.9 413.55 37
L 413.55 197.6
Q 409.3 197.15 404.95 197.15 387.7 196.55 374.25 196.3
L 344.6 149.65
M 280.15 39.4
L 284.8 79.3 247.05 83.35 249.45 102.45
Q 268.25 101.45 287.75 100.05
L 291.75 131.85 252.4 136.5 256.2 154.2 293.95 150.5 300.1 199 225.7 209.75 205.2 230.5 123.35 177.4 138.35 235.6 72.65 252.55 26.55 58.05 90.15 43.2 105.25 104.4 134.1 26.5 198.55 42.1 152.95 127.6 213.55 162.1 210.9 135.1
Q 209.3 120.25 207.65 106
L 201.25 49.7
Q 220.6 46.45 240.25 44.05 260.2 41.35 280.15 39.4 Z"/>
</g>
</defs>

<g transform="matrix( 1, 0, 0, 1, 0,21.7) ">
<use xlink:href="#Layer0_0_FILL"/>
</g>
</svg>
