
<svg xmlns="http://www.w3.org/2000/svg" version="1.1" xmlns:xlink="http://www.w3.org/1999/xlink" preserveAspectRatio="none" x="0px" y="0px" width="805px" height="330px" viewBox="0 0 805 330">
<defs>
<g id="Layer0_0_MEMBER_0_FILL">
<path fill="#202020" stroke="none" d="
M 206 309.6
Q 206.45 309.9 206.9 310.2
L 216.2 316.85 268.35 303.5 255.55 288.1 197.6 303.35
Q 201.8 306.55 206 309.6
M 302.05 293.6
L 293.5 276.75 279.85 292 290 307.45 302.05 293.6 Z"/>

<path fill="#171717" stroke="none" d="
M 251.65 274.75
L 265 291.3 290 307.45 279.85 292 279.4 292.45 251.65 274.75
M 498.85 291
L 487.65 288.1 476.9 303.5 487.5 306.1 487.65 306.1 498.4 308.75
Q 498.4 309.05 498.85 309.05
L 520.95 314.7 529.65 306.85 532.55 304.25
Q 534.45 302.5 536.35 300.75
L 511.5 294.05
Q 511.35 293.9 510.9 293.9
L 499.3 291.15
Q 498.85 291.15 498.85 291
M 578.65 222.4
L 600.3 198 553.8 236.05 551.45 244.65 578.65 222.4
M 326.9 289.7
Q 360.2 285.9 393.5 287.25 435.6 289.1 478.05 299.6
L 488.4 283.6
Q 477.9 281 467.3 278.95 430.55 271.55 393.9 270.1 351.75 268.65 309.75 274.45 301.8 275.45 293.5 276.75
L 302.05 293.6 302.65 293.05
Q 314.7 291.15 326.9 289.7 Z"/>

<path fill="#0B0B0B" stroke="none" d="
M 251.65 274.75
L 255.55 288.1 268.35 303.5 265 291.3 251.65 274.75
M 478.05 299.6
L 476.9 303.5 487.65 288.1 488.4 283.6 478.05 299.6 Z"/>

<path fill="#000000" fill-opacity="0.10196078431372549" stroke="none" d="
M 393.5 287.25
Q 360.2 285.9 326.9 289.7 314.7 291.15 302.65 293.05
L 302.05 293.6 290 307.45 265 291.3 268.35 303.5 216.2 316.85 206.9 310.2
Q 206.45 309.9 206 309.6
L 229.4 326.75
Q 368.9 277.65 508.45 326.75
L 529.65 306.85 520.95 314.7 498.85 309.05
Q 498.4 309.05 498.4 308.75
L 487.65 306.1 487.5 306.1 476.9 303.5 478.05 299.6
Q 435.6 289.1 393.5 287.25
M 481.7 166.6
L 479.5 166.6 482 174.15
Q 483 174.3 484.3 174.75
L 481.7 166.6 Z"/>

<path fill="#272727" stroke="none" d="
M 561.9 159.8
L 541.15 180.85 534.45 158.9 479.5 159.8 481.7 166.6 484.3 174.75
Q 483 174.3 482 174.15 481.55 174 481.1 173.85 476.3 172.85 471.65 172
L 471.65 171.85 470.5 171.85 470.2 171.55 469.8 171.4 469.65 171.4
Q 468.45 171.4 468.05 170.95
L 464.4 170.55
Q 461.5 169.95 459 169.8
L 458.9 169.8 455.4 169.1
Q 450 167.9 444.65 167.05
L 439.85 166.45 439.85 166.15 425.9 164.55 425.6 164.55 424.85 170.4 422.55 164.15
Q 388.55 160.5 354.95 160.65
L 354.95 169.1 349.75 160.95 346.4 161.25
Q 321.85 162.25 298 165.15
L 284.2 166.9 257.45 159.8
Q 252.8 159.35 248.3 158.05
L 232.45 154.1 225.75 170.95 223.6 162.85 181.3 172.4 181.3 172.25 167.5 175.6 167.5 175.9 167.2 175.9 168.1 180.1
Q 168.5 180.85 168.5 181.7
L 197.6 303.35 255.55 288.1 251.65 274.75 279.4 292.45 279.85 292 293.5 276.75
Q 301.8 275.45 309.75 274.45 351.75 268.65 393.9 270.1 430.55 271.55 467.3 278.95 477.9 281 488.4 283.6
L 487.65 288.1 498.85 291
Q 498.85 291.15 499.3 291.15
L 510.9 293.9
Q 511.35 293.9 511.5 294.05
L 536.35 300.75 551.45 244.65 553.8 236.05 600.3 198 562.5 159.8 562.5 160.05 561.9 159.8
M 489.7 186.1
Q 493.05 186.8 496.35 187.7
L 503.95 210.5 480.25 204.55 479.95 204.55 477.75 217.05
Q 478.05 217.05 478.2 217.2 489.85 219.95 504.65 222.55
L 500.75 238.85 475.45 234.35 474 246.1
Q 488.1 248.85 502.2 251.6
L 498.85 272.4 453.05 264.1 463.8 180.4
Q 467.15 180.85 470.65 181.7 477.05 182.9 483.45 184.5 486.5 185.2 489.7 186.1
M 495.05 169.8
L 526.3 169.1 535.45 200.05 562.5 174.15 585 196.25 543.6 227.8 528.05 285.05 513.1 281
Q 511.35 280.55 510.05 280.4
L 500.75 278.05 511.5 219.35
Q 510.45 215.85 509.3 212.55
L 495.05 169.8
M 325.6 193.95
Q 325.45 191.9 325.45 190 324.6 180.85 323.6 172 327.2 172 330.1 171.85 336.8 171.4 343.5 170.95
L 366.45 206.15 366.45 170.8
Q 377.8 170.8 389.7 171.4
L 389.7 258
Q 387.4 257.75 385.05 257.75 375.75 257.45 368.5 257.3
L 352.5 232.15 352.5 258
Q 342.75 258.75 332.6 259.05
L 325.6 193.95
M 413.55 173.15
L 414.7 173.3 431.4 212.55 435.6 175.6
Q 447.1 177.5 458.3 179.25
L 448.55 263.1
Q 435.35 261.35 426.05 260.05
L 412.95 234.9 412.95 259.2
Q 411.65 259.2 410.2 259.05 401.9 258.75 394.05 258.3
L 396.4 171.85
Q 404.8 172.25 413.55 173.15
M 325.2 232.6
L 328.5 258.75 288.4 264.55 277.35 275.75 233.2 247.1 241.3 278.5 205.85 287.65 181 182.75 215.3 174.75 223.45 207.75 239 165.75 273.75 174.15 249.15 220.25 281.85 238.85 280.4 224.3
Q 279.55 216.3 278.65 208.6
L 275.2 178.25
Q 285.65 176.5 296.25 175.2 307 173.75 317.75 172.7
L 320.25 194.2 299.9 196.4 301.2 206.7
Q 311.35 206.15 321.85 205.4
L 324 222.55 302.8 225.05 304.85 234.6 325.2 232.6 Z"/>

<path fill="#FFFFFF" stroke="none" d="
M 328.5 258.75
L 325.2 232.6 304.85 234.6 302.8 225.05 324 222.55 321.85 205.4
Q 311.35 206.15 301.2 206.7
L 299.9 196.4 320.25 194.2 317.75 172.7
Q 307 173.75 296.25 175.2 285.65 176.5 275.2 178.25
L 278.65 208.6
Q 279.55 216.3 280.4 224.3
L 281.85 238.85 249.15 220.25 273.75 174.15 239 165.75 223.45 207.75 215.3 174.75 181 182.75 205.85 287.65 241.3 278.5 233.2 247.1 277.35 275.75 288.4 264.55 328.5 258.75
M 414.7 173.3
L 413.55 173.15
Q 404.8 172.25 396.4 171.85
L 394.05 258.3
Q 401.9 258.75 410.2 259.05 411.65 259.2 412.95 259.2
L 412.95 234.9 426.05 260.05
Q 435.35 261.35 448.55 263.1
L 458.3 179.25
Q 447.1 177.5 435.6 175.6
L 431.4 212.55 414.7 173.3
M 325.45 190
Q 325.45 191.9 325.6 193.95
L 332.6 259.05
Q 342.75 258.75 352.5 258
L 352.5 232.15 368.5 257.3
Q 375.75 257.45 385.05 257.75 387.4 257.75 389.7 258
L 389.7 171.4
Q 377.8 170.8 366.45 170.8
L 366.45 206.15 343.5 170.95
Q 336.8 171.4 330.1 171.85 327.2 172 323.6 172 324.6 180.85 325.45 190
M 526.3 169.1
L 495.05 169.8 509.3 212.55
Q 510.45 215.85 511.5 219.35
L 500.75 278.05 510.05 280.4
Q 511.35 280.55 513.1 281
L 528.05 285.05 543.6 227.8 585 196.25 562.5 174.15 535.45 200.05 526.3 169.1
M 496.35 187.7
Q 493.05 186.8 489.7 186.1 486.5 185.2 483.45 184.5 477.05 182.9 470.65 181.7 467.15 180.85 463.8 180.4
L 453.05 264.1 498.85 272.4 502.2 251.6
Q 488.1 248.85 474 246.1
L 475.45 234.35 500.75 238.85 504.65 222.55
Q 489.85 219.95 478.2 217.2 478.05 217.05 477.75 217.05
L 479.95 204.55 480.25 204.55 503.95 210.5 496.35 187.7 Z"/>
</g>
</defs>

<g transform="matrix( 1.8544158935546875, 0, 0, 1.8544158935546875, -309.1,-280.85) ">
<use xlink:href="#Layer0_0_MEMBER_0_FILL"/>
</g>
</svg>
