
<svg xmlns="http://www.w3.org/2000/svg" version="1.1" xmlns:xlink="http://www.w3.org/1999/xlink" preserveAspectRatio="none" x="0px" y="0px" width="805px" height="330px" viewBox="0 0 805 330">
<defs>
<g id="Layer0_0_FILL">
<path fill="#000000" stroke="none" d="
M 734 37.65
L 732.9 37.2 694.4 76.2 682 35.5 580.1 37.2 589 64.9
Q 586.6 64.05 584.75 63.8 583.9 63.5 583.05 63.25 574.15 61.4 565.55 59.8
L 565.55 59.55 563.4 59.55 562.85 59 562.1 58.7 561.85 58.7
Q 559.6 58.7 558.85 57.85
L 552.1 57.1
Q 546.7 56 542.1 55.75
L 541.9 55.75 535.4 54.45
Q 525.4 52.2 515.45 50.65
L 506.55 49.5 506.55 48.95 480.7 46 480.15 46 478.75 56.85 474.5 45.25
Q 411.45 38.5 349.1 38.75
L 349.1 54.45 339.5 39.3 333.25 39.85
Q 287.75 41.75 243.5 47.1
L 217.9 50.35 168.3 37.2
Q 159.7 36.35 151.35 33.95
L 121.95 26.6 109.55 57.85 105.55 42.85 27.1 60.55 27.1 60.25 1.5 66.5 1.5 67.05 0.95 67.05 2.65 74.85
Q 3.35 76.2 3.35 77.8
L 57.35 303.4 164.8 275.1 157.55 250.35 209 283.15 209.85 282.35 235.15 254.05
Q 250.55 251.65 265.3 249.8 343.2 239.05 421.35 241.75 489.3 244.4 557.45 258.15 577.15 261.95 596.6 266.75
L 595.2 275.1 616 280.5
Q 616 280.75 616.8 280.75
L 638.3 285.85
Q 639.15 285.85 639.45 286.15
L 685.5 298.55 717.9 178.6 804.1 108 734 37.2 734 37.65
M 683.85 111.85
L 734 63.8 775.75 104.8 698.95 163.3 670.1 269.45 642.4 261.95
Q 639.15 261.1 636.75 260.85
L 619.5 256.45 639.45 147.6
Q 637.5 141.15 635.35 135
L 608.95 55.75 666.9 54.45 683.85 111.85
M 587.4 83
Q 593.05 84.3 599 85.95 605.2 87.25 611.35 88.9
L 625.45 131.2 581.5 120.15 580.95 120.15 576.85 143.35
Q 577.4 143.35 577.7 143.65 599.3 148.75 626.75 153.55
L 619.5 183.8 572.6 175.45 569.9 197.2
Q 596.05 202.3 622.2 207.4
L 616 246 531.05 230.6 551 75.4
Q 557.2 76.2 563.7 77.8 575.55 80 587.4 83
M 498.7 66.5
Q 520 70 540.8 73.25
L 522.7 228.75
Q 498.2 225.5 480.95 223.1
L 456.7 176.45 456.7 221.5
Q 454.25 221.5 451.6 221.25 436.2 220.7 421.65 219.85
L 426 59.55
Q 441.55 60.25 457.8 61.95
L 459.95 62.2 490.9 135 498.7 66.5
M 370.45 57.6
Q 391.5 57.6 413.55 58.7
L 413.55 219.3
Q 409.3 218.85 404.95 218.85 387.7 218.25 374.25 218
L 344.6 171.35 344.6 219.3
Q 326.5 220.7 307.7 221.25
L 294.7 100.5
Q 294.4 96.7 294.4 93.2 292.85 76.2 291 59.8 297.65 59.8 303.05 59.55 315.45 58.7 327.9 57.85
L 370.45 123.15 370.45 57.6
M 201.25 71.4
Q 220.6 68.15 240.25 65.75 260.2 63.05 280.15 61.1
L 284.8 101 247.05 105.05 249.45 124.15
Q 268.25 123.15 287.75 121.75
L 291.75 153.55 252.4 158.2 256.2 175.9 293.95 172.2 300.1 220.7 225.7 231.45 205.2 252.2 123.35 199.1 138.35 257.3 72.65 274.25 26.55 79.75 90.15 64.9 105.25 126.1 134.1 48.2 198.55 63.8 152.95 149.3 213.55 183.8 210.9 156.8
Q 209.3 141.95 207.65 127.7
L 201.25 71.4 Z"/>
</g>
</defs>

<g transform="matrix( 1, 0, 0, 1, 0,0) ">
<use xlink:href="#Layer0_0_FILL"/>
</g>
</svg>
